<svg width="612" height="612" xmlns="http://www.w3.org/2000/svg">

 <g>
  <title>background</title>
  <rect fill="none" id="canvas_background" height="402" width="582" y="-1" x="-1"/>
 </g>
 <g>
  <title>Layer 1</title>
  <g id="solid">
   <path d="m612,510c0,56.1 -45.9,102 -102,102l-408,0c-56.1,0 -102,-45.9 -102,-102l0,-408c0,-56.1 45.9,-102 102,-102l408,0c56.1,0 102,45.9 102,102l0,408z" fill="#563D7C" id="bg"/>
   <g id="B">
    <path id="svg_1" d="m166.3,133l173.5,0c32,0 57.7,7.3 77,22s29,36.8 29,66.5c0,18 -4.4,33.4 -13.2,46.2c-8.8,12.8 -21.4,22.8 -37.8,29.8l0,1c22,4.7 38.7,15.1 50,31.2c11.3,16.2 17,36.4 17,60.8c0,14 -2.5,27.1 -7.5,39.2c-5,12.2 -12.8,22.7 -23.5,31.5s-24.3,15.8 -41,21s-36.5,7.8 -59.5,7.8l-164,0l0,-357l0,0zm62.5,149.5l102,0c15,0 27.5,-4.2 37.5,-12.8s15,-20.8 15,-36.8c0,-18 -4.5,-30.7 -13.5,-38s-22,-11 -39,-11l-102,0l0,98.6l0,0zm0,156.5l110.5,0c19,0 33.8,-4.9 44.2,-14.8c10.5,-9.8 15.8,-23.8 15.8,-41.8c0,-17.7 -5.2,-31.2 -15.8,-40.8s-25.2,-14.2 -44.2,-14.2l-110.5,0l0,111.6z" fill="#FFFFFF"/>
   </g>
  </g>
  <path d="m513.5,123c0,6 0,14 0,25c0,9 0,19 0,25c0,10 0.74231,19.03067 0,28c-0.501709,6.062042 -2.569519,12.132996 -4,16c-0.775787,2.097168 -3.95517,6.549149 -5,10c-1.159149,3.828369 -0.497559,9.925797 -1,15c-0.689758,6.965927 -1.632355,14.849518 -3,22c-1.88797,9.870941 -0.645569,18.012573 -1,23c-0.501251,7.053284 -0.610657,10.159271 -2,13c-1.584106,3.238922 -2.731445,8.076904 -4,12c-1.65686,5.123962 -2.1604,8.963287 -3,13c-1.238617,5.955322 -1.207397,9.953796 -2,14c-1.359283,6.939178 -2.498749,10.946716 -3,18c-0.425323,5.984894 -1,11 -1,15c0,5 0,9 0,13c0,4 0,8 0,14c0,4 0,8 0,15c0,4 -0.329926,8.013641 0,12c0.501709,6.062042 1,10 1,15c0,4 0,8 0,13c0,3 0,7 0,10c0,2 0.48056,5.038727 0,8c-0.506531,3.121429 -4,9 -5,13c-1,4 -3.679626,9.025818 -4,11c-0.506531,3.121429 -2.173096,3.852722 -3,5c-1.307465,1.813995 -3.277435,6.885956 -8,10c-4.495758,2.964478 -10.571014,7.309998 -21,10c-7.806763,2.013611 -18.884399,5.554382 -32,8c-13.902496,2.592346 -28,3 -40,5c-12,2 -27.007782,3.471252 -45,4c-17.022034,0.500244 -37,1 -51,1c-15,0 -25.013519,0.434937 -32,0c-8.046677,-0.500977 -14.033539,-6.417419 -24,-9c-3.872116,-1.003357 -7.852737,-4.173096 -9,-5c-3.627991,-2.614929 -6.38063,-5.443542 -12,-7c-2.891144,-0.800781 -9.029205,0.591248 -15,0c-5.074203,-0.502441 -10,-3 -12,-4c-2,-1 -3.852737,-2.173096 -5,-3c-1.813995,-1.307465 -5.026749,-3.770233 -6,-4c-2.176254,-0.513733 -5,-1 -7,-3c-1,-1 -5.692551,-4.186005 -7,-6c-1.653809,-2.294525 -4.692383,-5.410919 -8,-10c-2.614899,-3.627991 -7,-9 -12,-14c-6,-6 -10.118156,-13.260956 -12,-18c-3.481705,-8.768005 -5.335861,-16.111359 -7,-24c-2.154999,-10.215485 -2.945076,-18.005646 -4,-28c-0.950539,-9.005371 -3.049461,-15.994629 -4,-25c-1.054924,-9.994354 -2.990242,-16.790253 -4,-24c-0.554802,-3.961334 -1,-8 -1,-12c0,-7 0,-15 0,-23c0,-11 0,-24 0,-36c0,-12 0.837044,-23.022064 2,-31c0.877419,-6.01915 1.343147,-9.876053 3,-15c1.268555,-3.923111 1.122581,-8.98085 2,-15c1.162956,-7.977936 2.938095,-19.18248 5,-28c2.665154,-11.397232 6.347595,-18.891495 9,-28c1.152771,-3.958679 1.511269,-10.029968 2,-14c0.503777,-4.092209 2,-6 2,-8c0,-2 1.496223,-3.907791 2,-8c0.366547,-2.977524 3.972511,-6.647491 5,-11c0.459503,-1.946495 1.292892,-3.292892 2,-4c0.707108,-0.707108 1.173096,-2.85273 2,-4c1.307449,-1.813995 3.563416,-5.342354 6,-8c4.327133,-4.719734 10.26207,-8.572769 17,-13c4.17868,-2.745651 7,-6 8,-6c1,0 2.053497,-0.540497 4,-1c2.176254,-0.513741 4.974182,-2.139114 10,-3c6.969559,-1.193832 10.790253,-1.990242 18,-3c4.951675,-0.693504 8,-1 12,-1c4,0 7.819351,-0.221489 9,-1c4.495758,-2.964485 7,-2 9,-2c2,0 4,0 6,0c3,0 6,-1 9,-1c4,0 8,0 10,0c4,0 10,0 15,0c4,0 7,0 9,0c1,0 3,0 6,0c1,0 2,0 4,0c3,0 5,0 11,0c4,0 8,0 14,0c5,0 11,0 20,0c8,0 14.907776,-0.496223 19,-1c1.985016,-0.24437 3,0 6,0c2,0 4,0 5,0c1,0 2,0 4,0c2,0 4.384583,0.211792 5,1c2.537415,3.249855 6,1 8,1c4,0 7,0 11,0c4,0 10,0 17,0c8,0 16.013092,4.876648 26,6c8.011719,0.901184 16.017609,3.503777 23,4c7.053284,0.501259 13.907593,2.414803 22,4c6.939178,1.359299 10.292908,0.292892 11,1c1.414215,1.414215 1.012909,3.839821 2,4c3.121429,0.506538 5.796997,2.2565 7,3c2.690002,1.662506 4.571106,1.679466 9,4c2.801086,1.467636 4.585785,-0.414215 6,1c0.707092,0.707108 0.693451,1.458801 2,2c0.923889,0.382683 1,1 1,2c0,1 0,3 0,4c0,1 0.458801,1.693436 1,3c0.38269,0.923882 0,2 0,3l0,1l0,1" id="svg_2" stroke-width="0" stroke="#000" fill="#563d7c"/>
  <text font-style="normal" font-weight="bold" stroke="#000" transform="matrix(24.85125506944113,0,0,22.62624274769587,-4461.34155949145,-3511.0219010240853) " xml:space="preserve" text-anchor="start" font-family="Oswald, sans-serif" font-size="24" id="svg_3" y="177" x="182.5" stroke-width="0" fill="#ffffff">G</text>
 </g>
</svg>